<svg xmlns="http://www.w3.org/2000/svg" width="40" height="40" version="1.0" viewBox="0 0 816 980">
  <path fill="#065096" d="M148 1.5c-24.6 3.9-48.2 15.9-66.1 33.8C62.7 54.3 50.4 79.7 47 107c-.5 4.6-1 23.2-1 41.2v32.7l40.3.3 40.2.4 8 2.7c34.9 11.7 54 46.7 44.9 82.2-4.5 17.2-18.5 34.5-34.4 42.3-15.1 7.4-15.7 7.5-59.7 8l-39.3.4V422h36.3c38.3.1 46.1.7 56.5 4.9 19.6 7.8 35.1 25.4 40.8 46.1 2.4 8.7 2.4 25.3 0 34-6.4 23.5-24.4 41.6-48.1 48.6-5.2 1.5-11.5 1.8-45.8 2.1l-39.7.4.2 52.7.3 52.7 41 .5c38.9.5 41.3.6 47.5 2.7 10 3.4 18.8 9 27.2 17.4 6.2 6.3 8.5 9.4 12.1 17 5.8 12 7.2 18.1 7.1 30.4 0 11.8-2 20.1-7 30.1-6.8 13.6-17.8 24.3-31.9 31-12.2 5.9-16.7 6.4-58.7 6.4H46v32.8c0 18 .5 36.6 1 41.2 3.4 27.3 15.7 52.7 34.9 71.7 18.9 18.9 43.9 31.1 70.1 34.2 7 .9 80.8 1.1 284.5.9 261-.3 275.4-.5 282.5-2.2 24.8-5.9 43.9-16.4 60.5-33 16.8-16.9 27-35.3 33.2-60.3 1.6-6.3 1.7-32.3 2-388.8.3-265.1 0-384.5-.7-390.2-3.1-23.6-12.5-44.9-28.2-63.2-16-18.9-37.5-32-63.2-38.9L712.5.5l-278-.2C206.3.2 155 .4 148 1.5zm329.8 242.4c45.8 10 81.8 47.3 89.7 92.9 1.9 10.9 1.9 30.5 0 41.4-11.4 65.5-77.5 108.2-142.5 92.1-32.4-8-61.4-31.6-76-61.7-35-72 10.1-155.5 90-166.6 9.3-1.3 28.5-.3 38.8 1.9zm48.8 270.6c27.1 4.7 49.4 16.4 69.5 36.4 15.3 15.3 24.7 30.2 31.4 50.4 5.6 16.8 6.5 25.1 6.5 61V694l-180.7-.2-180.8-.3.1-33c0-27.3.3-34.6 1.8-42 9.3-47.6 43-85.5 88.6-100 16.6-5.2 18.6-5.3 89.1-5.4 54.7-.1 67.1.2 74.5 1.4z"/>
  <path fill="#065096" d="M28.8 212.5c-10.4 2.8-19.8 11-24.6 21.3-2.3 4.9-2.7 7-2.7 15.2.1 8.3.4 10.2 2.8 15.1 6.1 12.5 16.7 20.2 30.3 22 9.5 1.2 75.3 1.1 83.9-.1 17.1-2.5 29.2-14.1 32.6-31.2 2.7-13.7-4.4-29.7-16.9-37.7-9.1-5.8-12.2-6.1-58.7-6-31.1.1-43.2.4-46.7 1.4zM31.1 453.1c-10.9 2.1-21.2 10.2-26.3 20.7-3 6.1-3.3 7.4-3.3 16.2 0 8.8.3 10.1 3.3 16.2 5.3 10.9 15.3 18.6 27.1 20.8 7.5 1.4 82.5 1.3 89.3-.1 20.1-4.3 33.6-23.8 29.8-43.1-3.1-15.9-14.3-27.4-29.8-30.7-6.3-1.3-83.3-1.4-90.1 0zM24.9 696.3c-7.2 3-11 5.7-15.3 11-6.1 7.4-7.9 12.9-8 23.7-.1 8.3.2 10.2 2.6 15.2 4.9 10.6 14.2 18.5 25 21.4 8.1 2.1 86 2 94.3-.1 14.4-3.8 24.5-14.9 27.5-30.3 3.1-15.5-5.8-32.6-20.8-39.9l-5.7-2.8-47-.2-47-.3-5.6 2.3z"/>
</svg>
